<svg width="24" height="24" viewBox="0 0 24 24" fill="none" xmlns="http://www.w3.org/2000/svg">
<g clip-path="url(#clip0_101_16)">
<path d="M19 5H4.99999C3.67391 5 2.40214 5.52678 1.46446 6.46447C0.526777 7.40215 -7.62939e-06 8.67392 -7.62939e-06 10L-7.62939e-06 14C-7.62939e-06 15.3261 0.526777 16.5979 1.46446 17.5355C2.40214 18.4732 3.67391 19 4.99999 19H19C19.6566 19 20.3068 18.8707 20.9134 18.6194C21.52 18.3681 22.0712 17.9998 22.5355 17.5355C22.9998 17.0712 23.3681 16.52 23.6194 15.9134C23.8707 15.3068 24 14.6566 24 14V10C24 9.34339 23.8707 8.69321 23.6194 8.08658C23.3681 7.47996 22.9998 6.92876 22.5355 6.46447C22.0712 6.00017 21.52 5.63188 20.9134 5.3806C20.3068 5.12933 19.6566 5 19 5ZM22 14C22 14.7957 21.6839 15.5587 21.1213 16.1213C20.5587 16.6839 19.7956 17 19 17H4.99999C4.20434 17 3.44128 16.6839 2.87867 16.1213C2.31606 15.5587 1.99999 14.7957 1.99999 14V10C1.99999 9.20435 2.31606 8.44129 2.87867 7.87868C3.44128 7.31607 4.20434 7 4.99999 7H19C19.7956 7 20.5587 7.31607 21.1213 7.87868C21.6839 8.44129 22 9.20435 22 10V14Z" fill="black"/>
</g>
<defs>
<clipPath id="clip0_101_16">
<rect width="24" height="24" fill="white"/>
</clipPath>
</defs>
</svg>
