<svg width="255" height="108" viewBox="0 0 255 108" fill="none" xmlns="http://www.w3.org/2000/svg">
<path opacity="0.95" d="M26.7285 36.0693C31.2402 36.0693 34.7721 37.8353 37.3242 41.3672C39.8763 44.8763 41.1523 49.6956 41.1523 55.8252C41.1523 62.137 39.8307 67.0247 37.1875 70.4883C34.5671 73.9518 30.9896 75.6836 26.4551 75.6836C21.9661 75.6836 18.4456 74.0544 15.8936 70.7959H15.1758L13.4326 75H5.46875V21.8164H15.8936V34.1895C15.8936 35.7617 15.7568 38.2796 15.4834 41.7432H15.8936C18.3317 37.9606 21.9434 36.0693 26.7285 36.0693ZM23.3789 44.4092C20.804 44.4092 18.9242 45.2067 17.7393 46.8018C16.5544 48.374 15.9391 50.9831 15.8936 54.6289V55.7568C15.8936 59.8584 16.4974 62.7979 17.7051 64.5752C18.9355 66.3525 20.8724 67.2412 23.5156 67.2412C25.6576 67.2412 27.3551 66.2614 28.6084 64.3018C29.8844 62.3193 30.5225 59.4482 30.5225 55.6885C30.5225 51.9287 29.8844 49.1146 28.6084 47.2461C27.3324 45.3548 25.5892 44.4092 23.3789 44.4092ZM74.0332 75L72.0166 69.8047H71.7432C69.9886 72.015 68.1771 73.5531 66.3086 74.4189C64.4629 75.262 62.0475 75.6836 59.0625 75.6836C55.3939 75.6836 52.5 74.6354 50.3809 72.5391C48.2845 70.4427 47.2363 67.4577 47.2363 63.584C47.2363 59.528 48.6491 56.543 51.4746 54.6289C54.3229 52.6921 58.6068 51.6211 64.3262 51.416L70.957 51.2109V49.5361C70.957 45.6624 68.9746 43.7256 65.0098 43.7256C61.9564 43.7256 58.3675 44.6484 54.2432 46.4941L50.791 39.4531C55.1888 37.1517 60.0651 36.001 65.4199 36.001C70.5469 36.001 74.4775 37.1175 77.2119 39.3506C79.9463 41.5837 81.3135 44.9788 81.3135 49.5361V75H74.0332ZM70.957 57.2949L66.9238 57.4316C63.8932 57.5228 61.6374 58.0697 60.1562 59.0723C58.6751 60.0749 57.9346 61.6016 57.9346 63.6523C57.9346 66.5918 59.6208 68.0615 62.9932 68.0615C65.4085 68.0615 67.334 67.3665 68.7695 65.9766C70.2279 64.5866 70.957 62.7409 70.957 60.4395V57.2949ZM118.74 63.6523C118.74 67.5716 117.373 70.5566 114.639 72.6074C111.927 74.6582 107.86 75.6836 102.437 75.6836C99.6566 75.6836 97.2868 75.4899 95.3271 75.1025C93.3675 74.738 91.5332 74.1911 89.8242 73.4619V64.8486C91.7611 65.7601 93.9372 66.5234 96.3525 67.1387C98.7907 67.7539 100.933 68.0615 102.778 68.0615C106.561 68.0615 108.452 66.9678 108.452 64.7803C108.452 63.96 108.201 63.2992 107.7 62.7979C107.199 62.2738 106.333 61.6927 105.103 61.0547C103.872 60.3939 102.231 59.6305 100.181 58.7646C97.2412 57.5342 95.0765 56.3949 93.6865 55.3467C92.3193 54.2985 91.3167 53.1022 90.6787 51.7578C90.0635 50.3906 89.7559 48.7158 89.7559 46.7334C89.7559 43.3382 91.0661 40.7178 93.6865 38.8721C96.3298 37.0036 100.067 36.0693 104.897 36.0693C109.5 36.0693 113.978 37.0719 118.33 39.0771L115.186 46.5967C113.271 45.7764 111.483 45.1042 109.819 44.5801C108.156 44.056 106.458 43.7939 104.727 43.7939C101.65 43.7939 100.112 44.6257 100.112 46.2891C100.112 47.2233 100.602 48.0322 101.582 48.7158C102.585 49.3994 104.761 50.4134 108.11 51.7578C111.095 52.9655 113.283 54.0934 114.673 55.1416C116.063 56.1898 117.088 57.3975 117.749 58.7646C118.41 60.1318 118.74 61.7611 118.74 63.6523ZM126.431 26.9092C126.431 23.514 128.322 21.8164 132.104 21.8164C135.887 21.8164 137.778 23.514 137.778 26.9092C137.778 28.527 137.3 29.7917 136.343 30.7031C135.409 31.5918 133.996 32.0361 132.104 32.0361C128.322 32.0361 126.431 30.3271 126.431 26.9092ZM137.3 75H126.875V36.7871H137.3V75ZM163.789 75.6836C151.895 75.6836 145.947 69.1553 145.947 56.0986C145.947 49.6045 147.565 44.6484 150.801 41.2305C154.036 37.7897 158.674 36.0693 164.712 36.0693C169.132 36.0693 173.097 36.9352 176.606 38.667L173.53 46.7334C171.89 46.0726 170.363 45.5371 168.95 45.127C167.537 44.694 166.125 44.4775 164.712 44.4775C159.289 44.4775 156.577 48.3285 156.577 56.0303C156.577 63.5042 159.289 67.2412 164.712 67.2412C166.717 67.2412 168.574 66.9792 170.283 66.4551C171.992 65.9082 173.701 65.0651 175.41 63.9258V72.8467C173.724 73.9176 172.015 74.6582 170.283 75.0684C168.574 75.4785 166.41 75.6836 163.789 75.6836ZM182.827 70.1123C182.827 68.1982 183.34 66.7513 184.365 65.7715C185.391 64.7917 186.883 64.3018 188.843 64.3018C190.734 64.3018 192.192 64.8031 193.218 65.8057C194.266 66.8083 194.79 68.2438 194.79 70.1123C194.79 71.9124 194.266 73.3366 193.218 74.3848C192.17 75.4102 190.711 75.9229 188.843 75.9229C186.929 75.9229 185.448 75.4215 184.399 74.4189C183.351 73.3936 182.827 71.958 182.827 70.1123ZM201.182 91.8164C198.516 91.8164 196.226 91.5316 194.312 90.9619V82.7588C195.907 83.1917 197.536 83.4082 199.199 83.4082C200.954 83.4082 202.23 82.9183 203.027 81.9385C203.848 80.9587 204.258 79.5117 204.258 77.5977V36.7871H214.683V79.1357C214.683 83.1917 213.509 86.3135 211.162 88.501C208.815 90.7113 205.488 91.8164 201.182 91.8164ZM203.813 26.9092C203.813 23.514 205.705 21.8164 209.487 21.8164C213.27 21.8164 215.161 23.514 215.161 26.9092C215.161 28.527 214.683 29.7917 213.726 30.7031C212.791 31.5918 211.379 32.0361 209.487 32.0361C205.705 32.0361 203.813 30.3271 203.813 26.9092ZM252.314 63.6523C252.314 67.5716 250.947 70.5566 248.213 72.6074C245.501 74.6582 241.434 75.6836 236.011 75.6836C233.231 75.6836 230.861 75.4899 228.901 75.1025C226.942 74.738 225.107 74.1911 223.398 73.4619V64.8486C225.335 65.7601 227.511 66.5234 229.927 67.1387C232.365 67.7539 234.507 68.0615 236.353 68.0615C240.135 68.0615 242.026 66.9678 242.026 64.7803C242.026 63.96 241.776 63.2992 241.274 62.7979C240.773 62.2738 239.907 61.6927 238.677 61.0547C237.446 60.3939 235.806 59.6305 233.755 58.7646C230.815 57.5342 228.651 56.3949 227.261 55.3467C225.894 54.2985 224.891 53.1022 224.253 51.7578C223.638 50.3906 223.33 48.7158 223.33 46.7334C223.33 43.3382 224.64 40.7178 227.261 38.8721C229.904 37.0036 233.641 36.0693 238.472 36.0693C243.075 36.0693 247.552 37.0719 251.904 39.0771L248.76 46.5967C246.846 45.7764 245.057 45.1042 243.394 44.5801C241.73 44.056 240.033 43.7939 238.301 43.7939C235.225 43.7939 233.687 44.6257 233.687 46.2891C233.687 47.2233 234.176 48.0322 235.156 48.7158C236.159 49.3994 238.335 50.4134 241.685 51.7578C244.67 52.9655 246.857 54.0934 248.247 55.1416C249.637 56.1898 250.662 57.3975 251.323 58.7646C251.984 60.1318 252.314 61.7611 252.314 63.6523Z" fill="#23ACCF"/>
<path d="M18.3633 101H16.3711V92.9375H7.34766V101H5.35547V83.8672H7.34766V91.1562H16.3711V83.8672H18.3633V101ZM32.4037 101L30.2709 95.5508H23.4037L21.2944 101H19.2787L26.0522 83.7969H27.728L34.4662 101H32.4037ZM29.6498 93.7578L27.6577 88.4492C27.3998 87.7773 27.1342 86.9531 26.8608 85.9766C26.6889 86.7266 26.4428 87.5508 26.1225 88.4492L24.1069 93.7578H29.6498ZM48.7645 101H46.4911L37.1278 86.6211H37.0341C37.1591 88.3086 37.2216 89.8555 37.2216 91.2617V101H35.3817V83.8672H37.6317L46.9716 98.1875H47.0653C47.0497 97.9766 47.0145 97.3008 46.9598 96.1602C46.9052 95.0117 46.8856 94.1914 46.9012 93.6992V83.8672H48.7645V101ZM65.7113 92.2695C65.7113 95.0977 64.9417 97.2617 63.4027 98.7617C61.8714 100.254 59.6644 101 56.7816 101H52.0355V83.8672H57.2855C59.9495 83.8672 62.0198 84.6055 63.4964 86.082C64.973 87.5586 65.7113 89.6211 65.7113 92.2695ZM63.6019 92.3398C63.6019 90.1055 63.0394 88.4219 61.9144 87.2891C60.7972 86.1562 59.1331 85.5898 56.9222 85.5898H54.0277V99.2773H56.4534C58.8284 99.2773 60.6136 98.6953 61.8089 97.5312C63.0042 96.3594 63.6019 94.6289 63.6019 92.3398ZM68.1033 83.8672H72.9431C75.2166 83.8672 76.8611 84.207 77.8767 84.8867C78.8923 85.5664 79.4002 86.6406 79.4002 88.1094C79.4002 89.125 79.115 89.9648 78.5447 90.6289C77.9822 91.2852 77.158 91.7109 76.072 91.9062V92.0234C78.6736 92.4688 79.9744 93.8359 79.9744 96.125C79.9744 97.6562 79.4548 98.8516 78.4158 99.7109C77.3845 100.57 75.9392 101 74.0798 101H68.1033V83.8672ZM70.0955 91.2031H73.3767C74.783 91.2031 75.7947 90.9844 76.4119 90.5469C77.0291 90.1016 77.3377 89.3555 77.3377 88.3086C77.3377 87.3477 76.9939 86.6562 76.3064 86.2344C75.6189 85.8047 74.5252 85.5898 73.0252 85.5898H70.0955V91.2031ZM70.0955 92.8906V99.3008H73.6697C75.0525 99.3008 76.0916 99.0352 76.7869 98.5039C77.49 97.9648 77.8416 97.125 77.8416 95.9844C77.8416 94.9219 77.4822 94.1406 76.7634 93.6406C76.0525 93.1406 74.9666 92.8906 73.5056 92.8906H70.0955ZM97.0969 92.4102C97.0969 95.1523 96.4016 97.3086 95.0109 98.8789C93.6281 100.449 91.7023 101.234 89.2336 101.234C86.7102 101.234 84.7609 100.465 83.3859 98.9258C82.0188 97.3789 81.3352 95.1992 81.3352 92.3867C81.3352 89.5977 82.0227 87.4375 83.3977 85.9062C84.7727 84.3672 86.7258 83.5977 89.257 83.5977C91.718 83.5977 93.6398 84.3789 95.0227 85.9414C96.4055 87.5039 97.0969 89.6602 97.0969 92.4102ZM83.4445 92.4102C83.4445 94.7305 83.9367 96.4922 84.9211 97.6953C85.9133 98.8906 87.3508 99.4883 89.2336 99.4883C91.132 99.4883 92.5656 98.8906 93.5344 97.6953C94.5031 96.5 94.9875 94.7383 94.9875 92.4102C94.9875 90.1055 94.5031 88.3594 93.5344 87.1719C92.5734 85.9766 91.1477 85.3789 89.257 85.3789C87.3586 85.3789 85.9133 85.9805 84.9211 87.1836C83.9367 88.3789 83.4445 90.1211 83.4445 92.4102ZM114.36 92.4102C114.36 95.1523 113.665 97.3086 112.274 98.8789C110.891 100.449 108.965 101.234 106.497 101.234C103.973 101.234 102.024 100.465 100.649 98.9258C99.2819 97.3789 98.5983 95.1992 98.5983 92.3867C98.5983 89.5977 99.2858 87.4375 100.661 85.9062C102.036 84.3672 103.989 83.5977 106.52 83.5977C108.981 83.5977 110.903 84.3789 112.286 85.9414C113.669 87.5039 114.36 89.6602 114.36 92.4102ZM100.708 92.4102C100.708 94.7305 101.2 96.4922 102.184 97.6953C103.176 98.8906 104.614 99.4883 106.497 99.4883C108.395 99.4883 109.829 98.8906 110.798 97.6953C111.766 96.5 112.251 94.7383 112.251 92.4102C112.251 90.1055 111.766 88.3594 110.798 87.1719C109.837 85.9766 108.411 85.3789 106.52 85.3789C104.622 85.3789 103.176 85.9805 102.184 87.1836C101.2 88.3789 100.708 90.1211 100.708 92.4102ZM129.127 101H126.783L120.537 92.6914L118.744 94.2852V101H116.752V83.8672H118.744V92.3633L126.514 83.8672H128.869L121.979 91.3086L129.127 101Z" fill="#141414"/>
</svg>
